<svg width="120" height="120" xmlns="http://www.w3.org/2000/svg">

  <circle cx="60" cy="60" r="58" fill="#2a2a2a"/>
  <circle cx="60" cy="60" r="55" fill="none" stroke="#1a1a1a" stroke-width="4" opacity="0.5"/>
  <circle cx="60" cy="60" r="50" fill="none" stroke="#3a3a3a" stroke-width="2" opacity="0.3"/>
  <g stroke="#1a1a1a" stroke-width="3" stroke-linecap="round" opacity="0.4">
    <line x1="60" y1="8" x2="60" y2="20"/>
    <line x1="95" y1="18" x2="87" y2="28"/>
    <line x1="112" y1="60" x2="100" y2="60"/>
    <line x1="95" y1="102" x2="87" y2="92"/>
    <line x1="60" y1="112" x2="60" y2="100"/>
    <line x1="25" y1="102" x2="33" y2="92"/>
    <line x1="8" y1="60" x2="20" y2="60"/>
    <line x1="25" y1="18" x2="33" y2="28"/>
  </g>
  <circle cx="60" cy="60" r="30" fill="#3a3a3a"/>
  <circle cx="60" cy="60" r="24" fill="#8B4513"/>
  <circle cx="60" cy="60" r="24" fill="url(#gradbrown)"/>
  <circle cx="60" cy="60" r="8" fill="#1a1a1a"/>
  <circle cx="60" cy="60" r="6" fill="#2a2a2a"/>
  <ellipse cx="50" cy="45" rx="12" ry="8" fill="#ffffff" opacity="0.2"/>
  <defs>
    <radialGradient id="gradbrown">
      <stop offset="0%" stop-color="#A0522D" stop-opacity="0.8"/>
      <stop offset="100%" stop-color="#654321"/>
    </radialGradient>
  </defs>
</svg>