<svg width="120" height="120" xmlns="http://www.w3.org/2000/svg">

  <polygon points="60,5 115,60 60,115 5,60" fill="#2a2a2a"/>
  <polygon points="60,10 110,60 60,110 10,60" fill="none" stroke="#1a1a1a" stroke-width="4" opacity="0.5"/>
  <polygon points="60,15 105,60 60,105 15,60" fill="none" stroke="#3a3a3a" stroke-width="2" opacity="0.3"/>
  <g stroke="#1a1a1a" stroke-width="3" stroke-linecap="round" opacity="0.4">
    <line x1="60" y1="15" x2="60" y2="25"/>
    <line x1="100" y1="60" x2="90" y2="60"/>
    <line x1="60" y1="105" x2="60" y2="95"/>
    <line x1="20" y1="60" x2="30" y2="60"/>
  </g>
  <polygon points="60,35 85,60 60,85 35,60" fill="#3a3a3a"/>
  <polygon points="60,40 80,60 60,80 40,60" fill="#32CD32"/>
  <polygon points="60,40 80,60 60,80 40,60" fill="url(#gradlime)"/>
  <circle cx="60" cy="60" r="6" fill="#1a1a1a"/>
  <circle cx="60" cy="60" r="4" fill="#2a2a2a"/>
  <ellipse cx="53" cy="53" rx="10" ry="6" fill="#ffffff" opacity="0.2"/>
  <defs>
    <radialGradient id="gradlime">
      <stop offset="0%" stop-color="#7FFF00" stop-opacity="0.8"/>
      <stop offset="100%" stop-color="#228B22"/>
    </radialGradient>
  </defs>
</svg>