<svg width="120" height="120" xmlns="http://www.w3.org/2000/svg">

  <path d="M60,100 C20,70 5,45 5,30 C5,15 15,5 30,5 C42,5 52,12 60,22 C68,12 78,5 90,5 C105,5 115,15 115,30 C115,45 100,70 60,100 Z" fill="#2a2a2a"/>
  <path d="M60,95 C25,68 10,45 10,32 C10,19 18,10 30,10 C40,10 50,16 60,25 C70,16 80,10 90,10 C102,10 110,19 110,32 C110,45 95,68 60,95 Z" fill="none" stroke="#1a1a1a" stroke-width="4" opacity="0.5"/>
  <path d="M60,90 C30,66 15,46 15,34 C15,23 21,15 30,15 C38,15 48,20 60,28 C72,20 82,15 90,15 C99,15 105,23 105,34 C105,46 90,66 60,90 Z" fill="none" stroke="#3a3a3a" stroke-width="2" opacity="0.3"/>
  <g stroke="#1a1a1a" stroke-width="2" stroke-linecap="round" opacity="0.4">
    <line x1="32" y1="20" x2="32" y2="26"/>
    <line x1="88" y1="20" x2="88" y2="26"/>
    <line x1="60" y1="75" x2="60" y2="82"/>
  </g>
  <path d="M60,70 C40,55 30,45 30,37 C30,32 33,28 38,28 C42,28 47,31 60,40 C73,31 78,28 82,28 C87,28 90,32 90,37 C90,45 80,55 60,70 Z" fill="#3a3a3a"/>
  <path d="M60,66 C42,52 34,44 34,38 C34,34 36,31 40,31 C44,31 48,33 60,41 C72,33 76,31 80,31 C84,31 86,34 86,38 C86,44 78,52 60,66 Z" fill="#8B4513"/>
  <path d="M60,66 C42,52 34,44 34,38 C34,34 36,31 40,31 C44,31 48,33 60,41 C72,33 76,31 80,31 C84,31 86,34 86,38 C86,44 78,52 60,66 Z" fill="url(#gradbrown)"/>
  <circle cx="60" cy="48" r="4" fill="#1a1a1a"/>
  <circle cx="60" cy="48" r="2" fill="#2a2a2a"/>
  <ellipse cx="50" cy="40" rx="8" ry="5" fill="#ffffff" opacity="0.2"/>
  <defs>
    <radialGradient id="gradbrown">
      <stop offset="0%" stop-color="#A0522D" stop-opacity="0.8"/>
      <stop offset="100%" stop-color="#654321"/>
    </radialGradient>
  </defs>
</svg>