<svg width="120" height="120" xmlns="http://www.w3.org/2000/svg">

  <polygon points="60,5 110,32 110,88 60,115 10,88 10,32" fill="#2a2a2a"/>
  <polygon points="60,10 105,35 105,85 60,110 15,85 15,35" fill="none" stroke="#1a1a1a" stroke-width="4" opacity="0.5"/>
  <polygon points="60,15 100,38 100,82 60,105 20,82 20,38" fill="none" stroke="#3a3a3a" stroke-width="2" opacity="0.3"/>
  <g stroke="#1a1a1a" stroke-width="3" stroke-linecap="round" opacity="0.4">
    <line x1="60" y1="15" x2="60" y2="25"/>
    <line x1="95" y1="38" x2="87" y2="43"/>
    <line x1="95" y1="82" x2="87" y2="77"/>
    <line x1="60" y1="105" x2="60" y2="95"/>
    <line x1="25" y1="82" x2="33" y2="77"/>
    <line x1="25" y1="38" x2="33" y2="43"/>
  </g>
  <polygon points="60,38 85,52 85,78 60,92 35,78 35,52" fill="#3a3a3a"/>
  <polygon points="60,43 80,54 80,76 60,87 40,76 40,54" fill="#32CD32"/>
  <polygon points="60,43 80,54 80,76 60,87 40,76 40,54" fill="url(#gradlime)"/>
  <circle cx="60" cy="65" r="6" fill="#1a1a1a"/>
  <circle cx="60" cy="65" r="4" fill="#2a2a2a"/>
  <ellipse cx="53" cy="56" rx="10" ry="6" fill="#ffffff" opacity="0.2"/>
  <defs>
    <radialGradient id="gradlime">
      <stop offset="0%" stop-color="#7FFF00" stop-opacity="0.8"/>
      <stop offset="100%" stop-color="#228B22"/>
    </radialGradient>
  </defs>
</svg>