<svg width="120" height="120" xmlns="http://www.w3.org/2000/svg">

  <rect x="2" y="2" width="116" height="116" rx="8" fill="#2a2a2a"/>
  <rect x="5" y="5" width="110" height="110" rx="6" fill="none" stroke="#1a1a1a" stroke-width="4" opacity="0.5"/>
  <rect x="10" y="10" width="100" height="100" rx="4" fill="none" stroke="#3a3a3a" stroke-width="2" opacity="0.3"/>
  <g stroke="#1a1a1a" stroke-width="3" stroke-linecap="round" opacity="0.4">
    <line x1="60" y1="10" x2="60" y2="20"/>
    <line x1="110" y1="60" x2="100" y2="60"/>
    <line x1="60" y1="110" x2="60" y2="100"/>
    <line x1="10" y1="60" x2="20" y2="60"/>
  </g>
  <rect x="30" y="30" width="60" height="60" rx="4" fill="#3a3a3a"/>
  <rect x="36" y="36" width="48" height="48" rx="2" fill="#32CD32"/>
  <rect x="36" y="36" width="48" height="48" rx="2" fill="url(#gradlime)"/>
  <rect x="52" y="52" width="16" height="16" rx="1" fill="#1a1a1a"/>
  <rect x="54" y="54" width="12" height="12" fill="#2a2a2a"/>
  <ellipse cx="50" cy="45" rx="12" ry="8" fill="#ffffff" opacity="0.2"/>
  <defs>
    <radialGradient id="gradlime">
      <stop offset="0%" stop-color="#7FFF00" stop-opacity="0.8"/>
      <stop offset="100%" stop-color="#228B22"/>
    </radialGradient>
  </defs>
</svg>