<svg width="120" height="120" xmlns="http://www.w3.org/2000/svg">

  <polygon points="60,5 72,42 112,42 80,66 92,105 60,80 28,105 40,66 8,42 48,42" fill="#2a2a2a"/>
  <polygon points="60,10 70,42 105,42 77,62 87,98 60,77 33,98 43,62 15,42 50,42" fill="none" stroke="#1a1a1a" stroke-width="4" opacity="0.5"/>
  <polygon points="60,15 68,42 98,42 74,58 82,90 60,74 38,90 46,58 22,42 52,42" fill="none" stroke="#3a3a3a" stroke-width="2" opacity="0.3"/>
  <g stroke="#1a1a1a" stroke-width="2" stroke-linecap="round" opacity="0.4">
    <line x1="60" y1="20" x2="60" y2="28"/>
    <line x1="85" y1="45" x2="78" y2="48"/>
    <line x1="80" y1="75" x2="74" y2="70"/>
    <line x1="45" y1="75" x2="51" y2="70"/>
    <line x1="35" y1="45" x2="42" y2="48"/>
  </g>
  <polygon points="60,38 68,55 85,55 72,65 77,82 60,72 43,82 48,65 35,55 52,55" fill="#3a3a3a"/>
  <polygon points="60,42 66,55 80,55 70,62 74,76 60,68 46,76 50,62 40,55 54,55" fill="#8B4513"/>
  <polygon points="60,42 66,55 80,55 70,62 74,76 60,68 46,76 50,62 40,55 54,55" fill="url(#gradbrown)"/>
  <circle cx="60" cy="60" r="5" fill="#1a1a1a"/>
  <circle cx="60" cy="60" r="3" fill="#2a2a2a"/>
  <ellipse cx="55" cy="52" rx="8" ry="5" fill="#ffffff" opacity="0.2"/>
  <defs>
    <radialGradient id="gradbrown">
      <stop offset="0%" stop-color="#A0522D" stop-opacity="0.8"/>
      <stop offset="100%" stop-color="#654321"/>
    </radialGradient>
  </defs>
</svg>