<svg width="120" height="120" xmlns="http://www.w3.org/2000/svg">

  <polygon points="60,5 115,110 5,110" fill="#2a2a2a"/>
  <polygon points="60,10 110,105 10,105" fill="none" stroke="#1a1a1a" stroke-width="4" opacity="0.5"/>
  <polygon points="60,15 105,100 15,100" fill="none" stroke="#3a3a3a" stroke-width="2" opacity="0.3"/>
  <g stroke="#1a1a1a" stroke-width="3" stroke-linecap="round" opacity="0.4">
    <line x1="60" y1="15" x2="60" y2="25"/>
    <line x1="95" y1="95" x2="87" y2="87"/>
    <line x1="25" y1="95" x2="33" y2="87"/>
  </g>
  <polygon points="60,35 85,85 35,85" fill="#3a3a3a"/>
  <polygon points="60,42 80,78 40,78" fill="#32CD32"/>
  <polygon points="60,42 80,78 40,78" fill="url(#gradlime)"/>
  <circle cx="60" cy="66" r="6" fill="#1a1a1a"/>
  <circle cx="60" cy="66" r="4" fill="#2a2a2a"/>
  <ellipse cx="55" cy="55" rx="8" ry="6" fill="#ffffff" opacity="0.2"/>
  <defs>
    <radialGradient id="gradlime">
      <stop offset="0%" stop-color="#7FFF00" stop-opacity="0.8"/>
      <stop offset="100%" stop-color="#228B22"/>
    </radialGradient>
  </defs>
</svg>